<?xml version="1.0" encoding="utf-8"?>
<!-- Generator: Adobe Illustrator 26.0.3, SVG Export Plug-In . SVG Version: 6.00 Build 0)  -->
<svg version="1.1" id="Layer_1" xmlns="http://www.w3.org/2000/svg" xmlns:xlink="http://www.w3.org/1999/xlink" x="0px" y="0px"
	 viewBox="0 0 600 100" style="enable-background:new 0 0 600 100;" xml:space="preserve">
<style type="text/css">
	.st0{display:none;}
	.st1{enable-background:new    ;}
	.st2{fill:#FFFFFF;}
	.st3{font-family:'EuphemiaUCAS-Bold';}
	.st4{font-size:85.7555px;}
</style>
<g id="Layer_1_00000024717125645014315750000010205486377822187679_" class="st0">
</g>
<g id="Layer_2_00000091728212204762114770000011296567140400543160_">
	<g>
		<g class="st1">
			<path class="st2" d="M27.84,83.04c-7.52,0-13.08-1.57-16.67-4.7c-3.6-3.13-5.39-7.97-5.39-14.51V44.02
				c0-6.6,1.81-11.46,5.42-14.56s9.16-4.62,16.65-4.57h11.82c7.55,0,13.12,1.56,16.7,4.67c3.58,3.12,5.37,7.96,5.37,14.54v19.72
				c0,6.54-1.79,11.38-5.37,14.51c-3.58,3.13-9.15,4.7-16.7,4.7H27.84V83.04z M27.84,75.84h11.82c3.51,0,6.27-0.36,8.28-1.09
				c2-0.73,3.42-1.96,4.26-3.71s1.26-4.14,1.26-7.2V44.11c0-3.03-0.42-5.42-1.26-7.16s-2.26-2.99-4.26-3.73
				c-2-0.74-4.76-1.12-8.28-1.12H27.84c-3.48-0.03-6.22,0.31-8.23,1.03c-2,0.71-3.43,1.94-4.29,3.69c-0.85,1.74-1.28,4.15-1.28,7.2
				v19.81c0,3.06,0.42,5.46,1.26,7.2s2.26,2.98,4.26,3.71C21.57,75.47,24.33,75.84,27.84,75.84z"/>
		</g>
	</g>
	<text transform="matrix(1.1488 0 0 1 69.6113 83.04)" class="st2 st3 st4">ᘉ</text>
	<g>
		<g class="st1">
			<path class="st2" d="M188,83.04c-2.76,0-4.14-1.2-4.14-3.6V28.5c0-2.4,1.38-3.6,4.14-3.6c1.41,0,2.79,0.71,4.14,2.14l39.6,44.42
				h-2.07V28.5c0-2.4,1.38-3.6,4.14-3.6s4.14,1.2,4.14,3.6v50.94c0,2.4-1.38,3.6-4.14,3.6c-1.48,0-2.86-0.71-4.14-2.14l-39.6-44.42
				h2.07v42.96C192.14,81.84,190.76,83.04,188,83.04z"/>
			<path class="st2" d="M262.58,83.04c-1.41,0-2.46-0.29-3.13-0.88s-1.01-1.49-1.01-2.72V28.59c0-1.26,0.34-2.17,1.01-2.74
				s1.72-0.86,3.13-0.86c1.44,0,2.5,0.29,3.15,0.86c0.66,0.57,0.99,1.49,0.99,2.74v50.85c0,1.23-0.33,2.14-0.99,2.72
				C265.07,82.75,264.02,83.04,262.58,83.04z"/>
			<path class="st2" d="M287.2,83.04c-2.69,0-4.04-1.2-4.04-3.6c0-0.4,0.13-0.84,0.39-1.33c0.26-0.49,0.66-1.07,1.18-1.76
				l39.6-45.11v0.86h-26.3c-2.1,0-3.74,0.27-4.93,0.81c-1.18,0.54-2,1.44-2.46,2.7c-0.3,1.06-0.76,1.88-1.38,2.47
				s-1.61,0.88-2.96,0.88c-1.38,0-2.46-0.33-3.23-0.99c-0.77-0.66-1.04-1.59-0.81-2.79c0.79-3.32,2.5-5.86,5.15-7.63
				c2.64-1.77,6.18-2.66,10.62-2.66h32.9c2.76,0,4.14,1.2,4.14,3.6c0,0.46-0.12,0.94-0.34,1.46c-0.23,0.51-0.64,1.11-1.23,1.8
				l-39.1,44.43v-0.34h29.16c2.23,0,3.94-0.26,5.12-0.79s1.97-1.44,2.36-2.72c0.36-1.09,0.86-1.92,1.5-2.49s1.62-0.86,2.93-0.86
				c1.38,0,2.45,0.33,3.2,0.99c0.75,0.66,1.04,1.59,0.84,2.79c-1.61,6.86-6.93,10.29-15.96,10.29H287.2V83.04z"/>
		</g>
	</g>
	<text transform="matrix(1.1488 0 0 1 344.8418 83.04)" class="st2 st3 st4">ᗩᗩᖇ</text>
</g>
</svg>
